<svg width="42" height="42" viewBox="0 0 42 42" fill="none" xmlns="http://www.w3.org/2000/svg">
<path fill-rule="evenodd" clip-rule="evenodd" d="M6.3 0C2.82061 0 0 2.82061 0 6.3V35.7C0 39.1794 2.82061 42 6.3 42H35.7C39.1794 42 42 39.1794 42 35.7V14.7C42 11.9569 40.2469 9.62334 37.8 8.75848V6.3C37.8 2.82061 34.9794 0 31.5 0H6.3ZM6.3 4.2C5.1402 4.2 4.2 5.1402 4.2 6.3C4.2 7.4598 5.1402 8.4 6.3 8.4H33.6V6.3C33.6 5.1402 32.6598 4.2 31.5 4.2H6.3ZM31.5 21C29.1804 21 27.3 22.8804 27.3 25.2C27.3 27.5196 29.1804 29.4 31.5 29.4H35.7C36.8598 29.4 37.8 28.4598 37.8 27.3V23.1C37.8 21.9402 36.8598 21 35.7 21H31.5Z" fill="#005161"/>
</svg>
