<svg width="512" height="185" viewBox="0 0 512 185" fill="none" xmlns="http://www.w3.org/2000/svg">
<path d="M240.631 21.3677C310.928 6.32934 376.247 1.00436 424.992 4.50148C449.383 6.25129 469.477 10.1993 483.937 16.1511C498.486 22.1396 506.734 29.8899 508.659 38.8877C510.584 47.8855 506.228 58.3319 495.403 69.7489C484.643 81.0958 467.923 92.9203 446.384 104.496C403.335 127.63 341.555 149.495 271.258 164.534C200.961 179.572 135.642 184.897 86.8957 181.4C62.5056 179.65 42.4121 175.701 27.9521 169.749C13.4026 163.761 5.15378 156.011 3.22887 147.013C1.30419 138.015 5.66025 127.569 16.4861 116.152C27.2454 104.805 43.965 92.9811 65.5042 81.4058C108.553 58.2713 170.334 36.4062 240.631 21.3677Z" stroke="#005D63" stroke-width="5"/>
</svg>
