<svg width="47" height="42" viewBox="0 0 47 42" fill="none" xmlns="http://www.w3.org/2000/svg">
<path fill-rule="evenodd" clip-rule="evenodd" d="M0 2.33333C0 1.04467 1.07867 0 2.40927 0H3.46561C6.78222 0 9.67322 2.18608 10.4776 5.30225L10.9159 7H39.7693C44.3932 7 47.828 11.1469 46.825 15.5185L44.148 27.1852C43.4131 30.3879 40.48 32.6667 37.0923 32.6667H18.2178C14.9012 32.6667 12.0102 30.4806 11.2058 27.3644L5.80294 6.43408C5.53481 5.39536 4.57114 4.66667 3.46561 4.66667H2.40927C1.07867 4.66667 0 3.622 0 2.33333ZM18.0699 42C20.0658 42 21.6838 40.433 21.6838 38.5C21.6838 36.567 20.0658 35 18.0699 35C16.074 35 14.456 36.567 14.456 38.5C14.456 40.433 16.074 42 18.0699 42ZM37.3438 42C39.3398 42 40.9578 40.433 40.9578 38.5C40.9578 36.567 39.3398 35 37.3438 35C35.3479 35 33.7299 36.567 33.7299 38.5C33.7299 40.433 35.3479 42 37.3438 42Z" fill="#005161"/>
</svg>
