<svg width="40" height="30" viewBox="0 0 40 30" fill="none" xmlns="http://www.w3.org/2000/svg">
<path d="M2.61493 26.0945H5.01507C5.32868 27.1735 5.98357 28.1216 6.88114 28.7974C7.779 29.4729 8.87136 29.8398 9.995 29.8426C11.1234 29.851 12.2232 29.4891 13.1256 28.8119C14.0282 28.1347 14.6836 27.1802 14.9911 26.0945H22.7946C23.1094 27.1768 23.767 28.1275 24.6688 28.8033C25.5706 29.4793 26.6676 29.844 27.7946 29.8426C28.9236 29.8521 30.0246 29.4902 30.9277 28.813C31.8311 28.1359 32.4871 27.1808 32.7946 26.0945H35.5508C36.0614 26.0957 36.5514 25.8934 36.9124 25.5323C37.2734 25.1713 37.4757 24.681 37.4746 24.1705V20.4866C37.4718 20.0569 37.3273 19.64 37.0633 19.3007C36.7991 18.9615 36.4305 18.719 36.0147 18.6105V18.5745H22.3947C22.0022 18.5745 21.6257 18.4188 21.3482 18.1411C21.0706 17.8635 20.9146 17.4871 20.9146 17.0946V4.57886C20.9146 4.28283 20.7971 3.99906 20.5878 3.7895C20.3786 3.58024 20.0945 3.46278 19.7988 3.46278H15.0426C13.9539 3.46947 12.9321 3.98984 12.2868 4.86678C12.2349 4.91867 12.1827 5.02275 12.1308 5.07465L8.1308 11.1106L5.3108 11.5108C4.5028 11.6218 3.76223 12.0216 3.22623 12.6366C2.69023 13.2513 2.39473 14.0393 2.39473 14.8548V19.8108C1.92458 19.8705 1.49208 20.0981 1.1768 20.4519C0.861505 20.8055 0.684334 21.2611 0.678469 21.7349V24.1707C0.677632 24.6836 0.881597 25.1755 1.24515 25.5368C1.60871 25.8981 2.10201 26.099 2.61458 26.0948L2.61493 26.0945ZM27.8149 22.0345C28.501 22.046 29.1556 22.3233 29.6408 22.8085C30.1259 23.2938 30.4036 23.9486 30.4148 24.6344C30.4148 25.3241 30.1411 25.9854 29.6534 26.4731C29.1656 26.9606 28.5044 27.2345 27.8149 27.2345C27.1252 27.2345 26.4639 26.9606 25.9765 26.4731C25.4888 25.9854 25.2148 25.3241 25.2148 24.6344C25.2148 23.945 25.4888 23.2837 25.9765 22.796C26.4639 22.3085 27.1252 22.0345 27.8149 22.0345ZM9.99493 22.0384C10.681 22.0499 11.3356 22.3275 11.8208 22.8127C12.306 23.2977 12.5836 23.9525 12.5948 24.6386C12.5928 25.3275 12.3183 25.9877 11.8311 26.4748C11.344 26.9617 10.6839 27.2365 9.99493 27.2385C9.30882 27.2273 8.65421 26.9497 8.16907 26.4644C7.68393 25.9792 7.40621 25.3244 7.39507 24.6386C7.39702 23.9497 7.67158 23.2895 8.15871 22.8024C8.64588 22.3152 9.306 22.0407 9.99493 22.0384ZM23.4149 14.9827V1.26266C23.4149 0.975275 23.5293 0.699604 23.7324 0.496232C23.9359 0.292825 24.2115 0.178711 24.4989 0.178711H29.6587L29.659 4.21078C29.659 4.4008 29.813 4.55481 30.003 4.55481H32.7151H32.7148C32.8061 4.55481 32.8937 4.51854 32.9581 4.45408C33.0226 4.38935 33.0589 4.30202 33.0589 4.21078V0.178711H38.219C38.5064 0.178711 38.7821 0.292832 38.9854 0.496232C39.1888 0.699639 39.303 0.975303 39.303 1.26266V14.9827C39.303 15.27 39.1888 15.5457 38.9854 15.7491C38.782 15.9522 38.5064 16.0666 38.219 16.0666H24.4947C24.2079 16.0655 23.9333 15.9508 23.7308 15.7477C23.5285 15.5446 23.4147 15.2695 23.4147 14.9826L23.4149 14.9827Z" fill="#005D63"/>
</svg>
