<svg width="38" height="29" viewBox="0 0 38 29" fill="none" xmlns="http://www.w3.org/2000/svg">
<path d="M31.4445 1.22842C30.4767 0.43527 29.2517 0 27.9822 0H9.30388C8.03444 0 6.80031 0.434842 5.84163 1.22842L3.1875 3.41174H34.0905L31.4445 1.22842Z" fill="#005D63"/>
<path d="M37.2853 8.39354C37.2853 7.58325 37.0812 6.79012 36.6726 6.03964C36.3619 5.47647 35.7583 5.11816 35.0925 5.11816H2.18369C1.51788 5.11816 0.914256 5.47648 0.612318 6.03926C0.204113 6.78976 0 7.58331 0 8.39355V23.8829C0 26.7059 2.38821 29.0005 5.32653 29.0005H31.9592C34.8975 29.0005 37.2857 26.7059 37.2857 23.8829L37.2853 8.39354ZM31.9588 18.7652C31.9588 19.7035 31.1598 20.4711 30.1833 20.4711H17.7547C16.7782 20.4711 15.9792 19.7035 15.9792 18.7652V11.9418C15.9792 11.0035 16.7782 10.2359 17.7547 10.2359H30.1833C31.1598 10.2359 31.9588 11.0035 31.9588 11.9418V18.7652Z" fill="#005D63"/>
<path d="M19.5303 13.6465H28.4078V17.0582H19.5303V13.6465Z" fill="#005D63"/>
</svg>
