<svg width="35" height="35" viewBox="0 0 35 35" fill="none" xmlns="http://www.w3.org/2000/svg">
<path fill-rule="evenodd" clip-rule="evenodd" d="M5.5415 0.416992C2.71105 0.416992 0.416504 2.71153 0.416504 5.54199V29.4587C0.416504 32.2891 2.71104 34.5837 5.5415 34.5837H29.4582C32.2886 34.5837 34.5832 32.2891 34.5832 29.4587V12.3753C34.5832 10.1439 33.157 8.2455 31.1665 7.54195V5.54199C31.1665 2.71153 28.872 0.416992 26.0415 0.416992H5.5415ZM5.5415 3.83366C4.59802 3.83366 3.83317 4.59851 3.83317 5.54199C3.83317 6.48548 4.59802 7.25033 5.5415 7.25033H27.7498V5.54199C27.7498 4.59851 26.985 3.83366 26.0415 3.83366H5.5415ZM26.0415 17.5003C24.1545 17.5003 22.6248 19.03 22.6248 20.917C22.6248 22.804 24.1545 24.3337 26.0415 24.3337H29.4582C30.4017 24.3337 31.1665 23.5688 31.1665 22.6253V19.2087C31.1665 18.2652 30.4017 17.5003 29.4582 17.5003H26.0415Z" fill="#005D63"/>
</svg>
