<svg width="100" height="16" viewBox="0 0 100 16" fill="none" xmlns="http://www.w3.org/2000/svg">
<path d="M8 0L11.0095 3.85783L15.6085 5.52786L12.8694 9.58217L12.7023 14.4721L8 13.12L3.29772 14.4721L3.13059 9.58217L0.391548 5.52786L4.99054 3.85783L8 0Z" fill="#FDDA5F"/>
<path d="M29 0L32.0095 3.85783L36.6085 5.52786L33.8694 9.58217L33.7023 14.4721L29 13.12L24.2977 14.4721L24.1306 9.58217L21.3915 5.52786L25.9905 3.85783L29 0Z" fill="#FDDA5F"/>
<path d="M50 0L53.0095 3.85783L57.6085 5.52786L54.8694 9.58217L54.7023 14.4721L50 13.12L45.2977 14.4721L45.1306 9.58217L42.3915 5.52786L46.9905 3.85783L50 0Z" fill="#FDDA5F"/>
<path d="M71 0L74.0095 3.85783L78.6085 5.52786L75.8694 9.58217L75.7023 14.4721L71 13.12L66.2977 14.4721L66.1306 9.58217L63.3915 5.52786L67.9905 3.85783L71 0Z" fill="#FDDA5F"/>
<path d="M92 0L95.0095 3.85783L99.6085 5.52786L96.8694 9.58217L96.7023 14.4721L92 13.12L87.2977 14.4721L87.1306 9.58217L84.3915 5.52786L88.9905 3.85783L92 0Z" fill="#FDDA5F"/>
</svg>
