<svg width="56" height="42" viewBox="0 0 56 42" fill="none" xmlns="http://www.w3.org/2000/svg">
<path d="M52.3388 36.5322H48.9786C48.5395 38.0427 47.6227 39.3701 46.3661 40.3162C45.1091 41.2619 43.5798 41.7756 42.0067 41.7795C40.427 41.7912 38.8872 41.2845 37.6239 40.3365C36.3602 39.3884 35.4427 38.0521 35.0122 36.5322H24.0872C23.6465 38.0474 22.7259 39.3783 21.4634 40.3244C20.2009 41.2708 18.665 41.7814 17.0872 41.7795C15.5067 41.7928 13.9653 41.2861 12.7009 40.3381C11.4361 39.39 10.5177 38.0529 10.0872 36.5322H6.22856C5.51372 36.5337 4.82776 36.2505 4.32236 35.7451C3.81689 35.2396 3.53369 34.5533 3.53525 33.8385V28.6811C3.53915 28.0795 3.7415 27.4959 4.11103 27.0209C4.48095 26.5459 4.99697 26.2064 5.57903 26.0544V26.0041H24.647C25.1966 26.0041 25.7236 25.7861 26.1122 25.3974C26.5008 25.0087 26.7193 24.4818 26.7193 23.9322V6.41021C26.7193 5.99576 26.8837 5.59849 27.1767 5.30511C27.4696 5.01214 27.8673 4.84769 28.2814 4.84769H34.94C36.4642 4.85707 37.8947 5.58558 38.7982 6.81329C38.8708 6.88595 38.9439 7.03165 39.0165 7.10431L44.6165 15.5547L48.5645 16.1149C49.6957 16.2703 50.7325 16.8301 51.4829 17.6911C52.2333 18.5516 52.647 19.6548 52.647 20.7966V27.7349C53.3052 27.8185 53.9107 28.1372 54.3521 28.6325C54.7936 29.1275 55.0416 29.7653 55.0498 30.4286V33.8388C55.051 34.5568 54.7654 35.2454 54.2564 35.7513C53.7475 36.2572 53.0568 36.5384 52.3392 36.5326L52.3388 36.5322ZM17.0588 30.8482C16.0982 30.8642 15.1818 31.2525 14.5026 31.9318C13.8234 32.6111 13.4346 33.5279 13.419 34.488C13.419 35.4536 13.8022 36.3794 14.485 37.0622C15.1678 37.7446 16.0936 38.1282 17.0588 38.1282C18.0244 38.1282 18.9502 37.7446 19.6326 37.0622C20.3154 36.3794 20.699 35.4536 20.699 34.488C20.699 33.5227 20.3154 32.597 19.6326 31.9142C18.9501 31.2317 18.0244 30.8482 17.0588 30.8482ZM42.0068 30.8536C41.0462 30.8696 40.1298 31.2583 39.4506 31.9376C38.7713 32.6165 38.3826 33.5333 38.367 34.4938C38.3697 35.4583 38.7541 36.3825 39.4361 37.0645C40.1181 37.7462 41.0423 38.1309 42.0068 38.1336C42.9673 38.118 43.8838 37.7293 44.563 37.05C45.2422 36.3707 45.631 35.4539 45.6466 34.4938C45.6438 33.5294 45.2594 32.6051 44.5775 31.9231C43.8954 31.2411 42.9713 30.8567 42.0068 30.8536ZM23.2188 20.9755V1.76753C23.2188 1.36519 23.0586 0.97925 22.7742 0.69453C22.4895 0.40976 22.1035 0.25 21.7012 0.25H14.4774L14.477 5.8949C14.477 6.16092 14.2614 6.37654 13.9954 6.37654H10.1985H10.1989C10.0712 6.37654 9.9485 6.32576 9.85826 6.23552C9.76803 6.1449 9.71725 6.02263 9.71725 5.8949V0.25H2.49305C2.09071 0.25 1.70477 0.40977 1.42004 0.69453C1.13528 0.9793 0.975521 1.36523 0.975521 1.76753V20.9755C0.975521 21.3779 1.13528 21.7638 1.42004 22.0485C1.70481 22.3329 2.09075 22.4931 2.49305 22.4931H21.7071C22.1086 22.4915 22.493 22.331 22.7766 22.0466C23.0597 21.7622 23.2191 21.3771 23.2191 20.9755L23.2188 20.9755Z" fill="#005161"/>
</svg>
