<svg width="50" height="50" viewBox="0 0 50 50" fill="none" xmlns="http://www.w3.org/2000/svg">
<path d="M45.4568 15.9075C46.6626 15.9075 47.8184 16.3865 48.6711 17.2388C49.5235 18.0911 50.0025 19.2475 50.0025 20.4531V29.5445C50.0025 30.7498 49.5235 31.9061 48.6711 32.7588C47.8184 33.6111 46.6625 34.0902 45.4568 34.0902H43.0432C42.4889 38.4841 40.3501 42.525 37.0288 45.4543C33.7067 48.3833 29.4303 50 25.0012 50V45.4543C28.618 45.4543 32.0865 44.0174 34.6439 41.46C37.2017 38.9026 38.6382 35.4342 38.6382 31.8173V18.1803C38.6382 14.5635 37.2017 11.0946 34.6439 8.5372C32.0865 5.97983 28.618 4.54329 25.0012 4.54329C21.3843 4.54329 17.9159 5.97983 15.3585 8.5372C12.8007 11.0946 11.3642 14.5635 11.3642 18.1803V34.0902H4.54567C3.33988 34.0902 2.18409 33.6111 1.33134 32.7588C0.479027 31.9061 0 30.7498 0 29.5445V20.4531C0 19.2473 0.479006 18.0911 1.33134 17.2388C2.18408 16.3865 3.33998 15.9075 4.54567 15.9075H6.95931C7.51399 11.5135 9.65284 7.47352 12.9745 4.54437C16.2962 1.61577 20.5726 0 25.0011 0C29.4295 0 33.706 1.61588 37.0276 4.54437C40.3493 7.4733 42.4882 11.5134 43.0428 15.9075H45.4568ZM15.3645 33.601L17.7735 29.7461C19.9398 31.1032 22.4451 31.8211 25.0012 31.8169C27.5573 31.8211 30.0627 31.1032 32.2289 29.7461L34.6379 33.601C31.7499 35.4105 28.4096 36.3675 25.0012 36.3626C21.5928 36.3676 18.2525 35.4105 15.3645 33.601Z" fill="#005161"/>
</svg>
